<svg width="24" height="24" viewBox="0 0 24 24" fill="none" xmlns="http://www.w3.org/2000/svg">
<g clip-path="url(#clip0_2509_46292)">
<path fill-rule="evenodd" clip-rule="evenodd" d="M11.9618 0.36377C14.1252 0.388457 16.0797 0.920165 17.8252 1.95889C19.5498 2.97688 20.9845 4.42031 21.9919 6.15114C23.0243 7.90712 23.5528 9.87341 23.5774 12.05C23.5161 15.0281 22.5768 17.5718 20.7595 19.6808C18.9421 21.7899 16.6145 23.0948 14.2051 23.595V15.2452H16.483L16.9982 11.964H13.5488V9.81485C13.5297 9.36932 13.6706 8.93164 13.946 8.58095C14.2219 8.2293 14.7077 8.04448 15.4033 8.02648H17.4863V5.15218C17.4564 5.14256 17.1728 5.10454 16.6355 5.0381C16.0262 4.96681 15.4134 4.92872 14.7999 4.92403C13.4114 4.93043 12.3132 5.32211 11.5055 6.09906C10.6977 6.87579 10.2851 7.99956 10.2676 9.47035V11.964H7.64258V15.2452H10.2676V23.595C7.30906 23.0948 4.98148 21.7899 3.16414 19.6808C1.34679 17.5717 0.407513 15.0281 0.346191 12.05C0.370726 9.87331 0.89922 7.90702 1.93167 6.15114C2.93915 4.42031 4.37381 2.97689 6.09847 1.95889C7.84389 0.920365 9.79833 0.388657 11.9618 0.36377Z" fill="white"/>
</g>
<defs>
<clipPath id="clip0_2509_46292">
<rect width="24" height="24" fill="white"/>
</clipPath>
</defs>
</svg>
