<svg width="24" height="24" viewBox="0 0 24 24" fill="none" xmlns="http://www.w3.org/2000/svg">
<g clip-path="url(#clip0_2509_46297)">
<path d="M12 0C18.6272 0 24 5.37281 24 12C24 18.6272 18.6272 24 12 24C5.37281 24 0 18.6272 0 12C2.88437e-07 5.37281 5.37281 2.88428e-07 12 0ZM10.4883 12.7832L5.10059 19.0449H6.31836L11.0283 13.5693L14.791 19.0449H18.8994L13.3125 10.9141L18.4502 4.94238H17.2324L12.7725 10.1279L9.20996 4.94238H5.10059L10.4883 12.7832ZM17.2334 18.1699H15.3633L6.75684 5.85938H8.62598L17.2334 18.1699Z" fill="white"/>
</g>
<defs>
<clipPath id="clip0_2509_46297">
<rect width="24" height="24" fill="white"/>
</clipPath>
</defs>
</svg>
